<svg width="200" height="200" viewBox="0 0 200 200" fill="none" xmlns="http://www.w3.org/2000/svg">
  <rect width="200" height="200" fill="#F3F4F6"/>
  <path d="M60 80C60 68.9543 68.9543 60 80 60H120C131.046 60 140 68.9543 140 80V120C140 131.046 131.046 140 120 140H80C68.9543 140 60 131.046 60 120V80Z" fill="#D1D5DB"/>
  <path d="M70 90C70 83.3726 75.3726 78 82 78H118C124.627 78 130 83.3726 130 90V110C130 116.627 124.627 122 118 122H82C75.3726 122 70 116.627 70 110V90Z" fill="#9CA3AF"/>
  <circle cx="100" cy="100" r="15" fill="#6B7280"/>
  <path d="M95 100L98 103L105 96" stroke="white" stroke-width="2" stroke-linecap="round" stroke-linejoin="round"/>
</svg>
